<mxfile host="app.diagrams.net" modified="2023-08-04T03:12:20.536Z" agent="Mozilla/5.0 (Windows NT 10.0; Win64; x64) AppleWebKit/537.36 (KHTML, like Gecko) Chrome/114.0.0.0 Safari/537.36" etag="SvKGwQVBB1ZOwfVEqZbH" version="21.6.6" type="github">
  <diagram name="Page-1" id="aer8tdyePxqcCyjJOpLu">
    <mxGraphModel dx="969" dy="915" grid="1" gridSize="10" guides="1" tooltips="1" connect="1" arrows="1" fold="1" page="1" pageScale="1" pageWidth="850" pageHeight="1100" math="0" shadow="0">
      <root>
        <mxCell id="0" />
        <mxCell id="1" parent="0" />
        <mxCell id="OcRRa6MU9QqtEkqU5AI0-9" value="" style="edgeStyle=orthogonalEdgeStyle;rounded=0;orthogonalLoop=1;jettySize=auto;html=1;" edge="1" parent="1" source="OcRRa6MU9QqtEkqU5AI0-1" target="OcRRa6MU9QqtEkqU5AI0-2">
          <mxGeometry relative="1" as="geometry" />
        </mxCell>
        <mxCell id="OcRRa6MU9QqtEkqU5AI0-1" value="Input" style="rounded=1;whiteSpace=wrap;html=1;" vertex="1" parent="1">
          <mxGeometry x="20" y="100" width="120" height="60" as="geometry" />
        </mxCell>
        <mxCell id="OcRRa6MU9QqtEkqU5AI0-10" value="" style="edgeStyle=orthogonalEdgeStyle;rounded=0;orthogonalLoop=1;jettySize=auto;html=1;" edge="1" parent="1" source="OcRRa6MU9QqtEkqU5AI0-2" target="OcRRa6MU9QqtEkqU5AI0-3">
          <mxGeometry relative="1" as="geometry" />
        </mxCell>
        <mxCell id="OcRRa6MU9QqtEkqU5AI0-2" value="Pre-processamento" style="rounded=1;whiteSpace=wrap;html=1;" vertex="1" parent="1">
          <mxGeometry x="220" y="100" width="120" height="60" as="geometry" />
        </mxCell>
        <mxCell id="OcRRa6MU9QqtEkqU5AI0-11" style="edgeStyle=orthogonalEdgeStyle;rounded=0;orthogonalLoop=1;jettySize=auto;html=1;entryX=0.5;entryY=0;entryDx=0;entryDy=0;" edge="1" parent="1" source="OcRRa6MU9QqtEkqU5AI0-3" target="OcRRa6MU9QqtEkqU5AI0-4">
          <mxGeometry relative="1" as="geometry" />
        </mxCell>
        <mxCell id="OcRRa6MU9QqtEkqU5AI0-3" value="Extração de dados" style="rounded=1;whiteSpace=wrap;html=1;" vertex="1" parent="1">
          <mxGeometry x="420" y="100" width="120" height="60" as="geometry" />
        </mxCell>
        <mxCell id="OcRRa6MU9QqtEkqU5AI0-15" value="" style="edgeStyle=orthogonalEdgeStyle;rounded=0;orthogonalLoop=1;jettySize=auto;html=1;" edge="1" parent="1" source="OcRRa6MU9QqtEkqU5AI0-4" target="OcRRa6MU9QqtEkqU5AI0-8">
          <mxGeometry relative="1" as="geometry" />
        </mxCell>
        <mxCell id="OcRRa6MU9QqtEkqU5AI0-4" value="Classificação" style="rounded=1;whiteSpace=wrap;html=1;" vertex="1" parent="1">
          <mxGeometry x="590" y="210" width="120" height="60" as="geometry" />
        </mxCell>
        <mxCell id="OcRRa6MU9QqtEkqU5AI0-12" value="" style="edgeStyle=orthogonalEdgeStyle;rounded=0;orthogonalLoop=1;jettySize=auto;html=1;" edge="1" parent="1" source="OcRRa6MU9QqtEkqU5AI0-5" target="OcRRa6MU9QqtEkqU5AI0-4">
          <mxGeometry relative="1" as="geometry" />
        </mxCell>
        <mxCell id="OcRRa6MU9QqtEkqU5AI0-5" value="Treinamento" style="rounded=1;whiteSpace=wrap;html=1;" vertex="1" parent="1">
          <mxGeometry x="410" y="210" width="120" height="60" as="geometry" />
        </mxCell>
        <mxCell id="OcRRa6MU9QqtEkqU5AI0-13" value="" style="edgeStyle=orthogonalEdgeStyle;rounded=0;orthogonalLoop=1;jettySize=auto;html=1;" edge="1" parent="1" source="OcRRa6MU9QqtEkqU5AI0-6" target="OcRRa6MU9QqtEkqU5AI0-5">
          <mxGeometry relative="1" as="geometry" />
        </mxCell>
        <mxCell id="OcRRa6MU9QqtEkqU5AI0-6" value="Extração de dados" style="rounded=1;whiteSpace=wrap;html=1;" vertex="1" parent="1">
          <mxGeometry x="230" y="210" width="120" height="60" as="geometry" />
        </mxCell>
        <mxCell id="OcRRa6MU9QqtEkqU5AI0-14" value="" style="edgeStyle=orthogonalEdgeStyle;rounded=0;orthogonalLoop=1;jettySize=auto;html=1;" edge="1" parent="1" source="OcRRa6MU9QqtEkqU5AI0-7" target="OcRRa6MU9QqtEkqU5AI0-6">
          <mxGeometry relative="1" as="geometry" />
        </mxCell>
        <mxCell id="OcRRa6MU9QqtEkqU5AI0-7" value="Dataset" style="shape=cylinder3;whiteSpace=wrap;html=1;boundedLbl=1;backgroundOutline=1;size=15;" vertex="1" parent="1">
          <mxGeometry x="50" y="200" width="110" height="80" as="geometry" />
        </mxCell>
        <mxCell id="OcRRa6MU9QqtEkqU5AI0-8" value="Decisão" style="rounded=1;whiteSpace=wrap;html=1;" vertex="1" parent="1">
          <mxGeometry x="590" y="330" width="120" height="60" as="geometry" />
        </mxCell>
      </root>
    </mxGraphModel>
  </diagram>
</mxfile>
